# xmcd CD database file
#
# Track frame offsets:
#	150
#	49556
#	81409
#	95109
#	114081
#	129516
#	139988
#	154621
#	175009
#	191895
#	209750
#	224331
#	241109
#	262020
#	277704
#	295901
#
# Disc length: 4150 seconds
#
# Revision: 0
# Processed by: cddbd v1.5.2PL0 Copyright (c) Steve Scherf et al.
# Submitted via: CDex 1.51
#
DISCID=ee103410
DTITLE=Miles Davis - Blue Note TSF-Miles Davis
DYEAR=1900
DGENRE=Jazz
TTITLE0=Auntumn Leaves
TTITLE1=Love for Sale
TTITLE2=Boplicity
TTITLE3=Dear Old Stockholm
TTITLE4=Enigma
TTITLE5=Israel
TTITLE6=Jeru
TTITLE7=The Leap
TTITLE8=Yesterdays
TTITLE9=Tempus Fugit
TTITLE10=Venus de Milo
TTITLE11=Ray's Idea
TTITLE12=How Deep is the Ocean?
TTITLE13=I Waited for You
TTITLE14=It Never Entered my Mind
TTITLE15=Darn That Dream
EXTD=
EXTT0=
EXTT1=
EXTT2=
EXTT3=
EXTT4=
EXTT5=
EXTT6=
EXTT7=
EXTT8=
EXTT9=
EXTT10=
EXTT11=
EXTT12=
EXTT13=
EXTT14=
EXTT15=
PLAYORDER=
